{
    "asset" : {
        "generator" : "Khronos glTF Blender I/O v1.8.19",
        "version" : "2.0"
    },
    "scene" : 0,
    "scenes" : [
        {
            "name" : "Scene",
            "nodes" : [
                0
            ]
        }
    ],
    "nodes" : [
        {
            "mesh" : 0,
            "name" : "White bear",
            "rotation" : [
                0.0855548083782196,
                0.41949862241744995,
                -0.06758534908294678,
                0.9011844992637634
            ],
            "translation" : [
                -0.7117934823036194,
                1.350781798362732,
                1.6240109205245972
            ]
        }
    ],
    "materials" : [
        {
            "doubleSided" : true,
            "name" : "Material",
            "pbrMetallicRoughness" : {
                "metallicFactor" : 0,
                "roughnessFactor" : 0.5
            }
        },
        {
            "doubleSided" : true,
            "name" : "Material.004",
            "pbrMetallicRoughness" : {
                "baseColorFactor" : [
                    0.05780189484357834,
                    0.05780189484357834,
                    0.05780189484357834,
                    1
                ],
                "metallicFactor" : 0,
                "roughnessFactor" : 0.5
            }
        }
    ],
    "meshes" : [
        {
            "name" : "Mesh.001",
            "primitives" : [
                {
                    "attributes" : {
                        "POSITION" : 0,
                        "NORMAL" : 1,
                        "TEXCOORD_0" : 2,
                        "TEXCOORD_1" : 3,
                        "COLOR_0" : 4
                    },
                    "indices" : 5,
                    "material" : 0
                },
                {
                    "attributes" : {
                        "POSITION" : 6,
                        "NORMAL" : 7,
                        "TEXCOORD_0" : 8,
                        "TEXCOORD_1" : 9,
                        "COLOR_0" : 10
                    },
                    "indices" : 11,
                    "material" : 1
                }
            ]
        }
    ],
    "accessors" : [
        {
            "bufferView" : 0,
            "componentType" : 5126,
            "count" : 1304,
            "max" : [
                2.886287212371826,
                1.0286219120025635,
                0.7889254093170166
            ],
            "min" : [
                -0.47236397862434387,
                -1.5917725563049316,
                -1.6022975444793701
            ],
            "type" : "VEC3"
        },
        {
            "bufferView" : 1,
            "componentType" : 5126,
            "count" : 1304,
            "type" : "VEC3"
        },
        {
            "bufferView" : 2,
            "componentType" : 5126,
            "count" : 1304,
            "type" : "VEC2"
        },
        {
            "bufferView" : 3,
            "componentType" : 5126,
            "count" : 1304,
            "type" : "VEC2"
        },
        {
            "bufferView" : 4,
            "componentType" : 5123,
            "count" : 1304,
            "normalized" : true,
            "type" : "VEC4"
        },
        {
            "bufferView" : 5,
            "componentType" : 5123,
            "count" : 1308,
            "type" : "SCALAR"
        },
        {
            "bufferView" : 6,
            "componentType" : 5126,
            "count" : 110,
            "max" : [
                -0.13097739219665527,
                0.624589204788208,
                -0.024423306807875633
            ],
            "min" : [
                -0.5008987784385681,
                0.08837339282035828,
                -0.4564233422279358
            ],
            "type" : "VEC3"
        },
        {
            "bufferView" : 7,
            "componentType" : 5126,
            "count" : 110,
            "type" : "VEC3"
        },
        {
            "bufferView" : 8,
            "componentType" : 5126,
            "count" : 110,
            "type" : "VEC2"
        },
        {
            "bufferView" : 9,
            "componentType" : 5126,
            "count" : 110,
            "type" : "VEC2"
        },
        {
            "bufferView" : 10,
            "componentType" : 5123,
            "count" : 110,
            "normalized" : true,
            "type" : "VEC4"
        },
        {
            "bufferView" : 11,
            "componentType" : 5123,
            "count" : 114,
            "type" : "SCALAR"
        }
    ],
    "bufferViews" : [
        {
            "buffer" : 0,
            "byteLength" : 15648,
            "byteOffset" : 0
        },
        {
            "buffer" : 0,
            "byteLength" : 15648,
            "byteOffset" : 15648
        },
        {
            "buffer" : 0,
            "byteLength" : 10432,
            "byteOffset" : 31296
        },
        {
            "buffer" : 0,
            "byteLength" : 10432,
            "byteOffset" : 41728
        },
        {
            "buffer" : 0,
            "byteLength" : 10432,
            "byteOffset" : 52160
        },
        {
            "buffer" : 0,
            "byteLength" : 2616,
            "byteOffset" : 62592
        },
        {
            "buffer" : 0,
            "byteLength" : 1320,
            "byteOffset" : 65208
        },
        {
            "buffer" : 0,
            "byteLength" : 1320,
            "byteOffset" : 66528
        },
        {
            "buffer" : 0,
            "byteLength" : 880,
            "byteOffset" : 67848
        },
        {
            "buffer" : 0,
            "byteLength" : 880,
            "byteOffset" : 68728
        },
        {
            "buffer" : 0,
            "byteLength" : 880,
            "byteOffset" : 69608
        },
        {
            "buffer" : 0,
            "byteLength" : 228,
            "byteOffset" : 70488
        }
    ],
    "buffers" : [
        {
            "byteLength" : 70716,
            "uri" : "data:application/octet-stream;base64,"
        }
    ]
}
